<svg width="32" height="32" viewBox="0 0 32 32" fill="none" xmlns="http://www.w3.org/2000/svg">
<g id="legend_toggle">
<path id="Vector" d="M25.3333 19.9993H6.66666C5.93333 19.9993 5.33333 19.3993 5.33333 18.666C5.33333 17.9327 5.93333 17.3327 6.66666 17.3327H25.3333C26.0667 17.3327 26.6667 17.9327 26.6667 18.666C26.6667 19.3993 26.0667 19.9993 25.3333 19.9993ZM25.3333 22.666H6.66666C5.93333 22.666 5.33333 23.266 5.33333 23.9993C5.33333 24.7327 5.93333 25.3327 6.66666 25.3327H25.3333C26.0667 25.3327 26.6667 24.7327 26.6667 23.9993C26.6667 23.266 26.0667 22.666 25.3333 22.666ZM20 14.666L26.1067 10.3327C26.4533 10.0793 26.6667 9.67935 26.6667 9.25268C26.6667 8.17268 25.44 7.53268 24.56 8.15935L20 11.3993L13.3333 6.66602L5.97333 11.146C5.57333 11.3993 5.33333 11.826 5.33333 12.2927C5.33333 13.3327 6.46666 13.9727 7.35999 13.426L13.2267 9.85268L20 14.666Z" fill="#EE3E54"/>
</g>
</svg>
