<svg width="32" height="32" viewBox="0 0 32 32" fill="none" xmlns="http://www.w3.org/2000/svg">
<g id="biotech">
<g id="Vector">
<path d="M9.33335 25.814C7.86669 25.814 6.66669 27.014 6.66669 28.4807H25.3334C25.3334 27.014 24.1334 25.814 22.6667 25.814H17.3334V23.1473H21.3334C22.8 23.1473 24 21.9473 24 20.4807H13.3334C11.12 20.4807 9.33335 18.694 9.33335 16.4807C9.33335 15.0273 10.12 13.7607 11.28 13.0673C10.8934 12.5207 10.6667 11.8673 10.6667 11.1473C10.6667 10.8673 10.72 10.5873 10.7867 10.3207C8.37335 11.3207 6.66669 13.7073 6.66669 16.4807C6.66669 20.1607 9.65335 23.1473 13.3334 23.1473V25.814H9.33335Z" fill="#5A8088"/>
<path d="M14.08 7.82734C15.88 7.86734 17.3334 9.334 17.3334 11.1473C17.3334 12.1473 16.8934 13.0273 16.2 13.6407L16.5334 14.5473C16.7867 15.2407 17.5467 15.6007 18.24 15.3473C18.4934 16.0407 19.2534 16.4007 19.9467 16.1473C20.64 15.894 21 15.134 20.7467 14.4407C21.44 14.1873 21.8 13.4273 21.5467 12.734L18.8 5.20067C18.5467 4.50734 17.7867 4.14734 17.0934 4.40067C16.84 3.70734 16.08 3.34734 15.3867 3.60067C14.6934 3.854 14.3334 4.614 14.5867 5.30734C13.8934 5.56067 13.5334 6.32067 13.7867 7.014L14.08 7.82734Z" fill="#5A8088"/>
<path d="M14 13.1473C15.1046 13.1473 16 12.2519 16 11.1473C16 10.0428 15.1046 9.14734 14 9.14734C12.8955 9.14734 12 10.0428 12 11.1473C12 12.2519 12.8955 13.1473 14 13.1473Z" fill="#5A8088"/>
</g>
</g>
</svg>
