<svg width="32" height="32" viewBox="0 0 32 32" fill="none" xmlns="http://www.w3.org/2000/svg">
<g id="science">
<path id="Vector" d="M27.3867 23.64L20 14.6667V6.66667H21.3333C22.0667 6.66667 22.6667 6.06667 22.6667 5.33333C22.6667 4.6 22.0667 4 21.3333 4H10.6667C9.93333 4 9.33333 4.6 9.33333 5.33333C9.33333 6.06667 9.93333 6.66667 10.6667 6.66667H12V14.6667L4.61333 23.64C4.18667 24.16 4 24.7467 4 25.3333C4.01333 26.7067 5.09333 28 6.66667 28H25.3333C26.92 28 28 26.7067 28 25.3333C28 24.7467 27.8133 24.16 27.3867 23.64Z" fill="#B35969"/>
</g>
</svg>
