<svg width="32" height="32" viewBox="0 0 32 32" fill="none" xmlns="http://www.w3.org/2000/svg">
<g id="desktop_mac">
<path id="Vector" d="M28 2.66602H3.99998C2.53331 2.66602 1.33331 3.86602 1.33331 5.33268V21.3327C1.33331 22.7993 2.53331 23.9993 3.99998 23.9993H13.3333L11.16 27.266C10.5733 28.146 11.2 29.3327 12.2666 29.3327H19.7333C20.8 29.3327 21.44 28.146 20.84 27.266L18.6666 23.9993H28C29.4666 23.9993 30.6666 22.7993 30.6666 21.3327V5.33268C30.6666 3.86602 29.4666 2.66602 28 2.66602ZM28 18.666H3.99998V6.66602C3.99998 5.93268 4.59998 5.33268 5.33331 5.33268H26.6666C27.4 5.33268 28 5.93268 28 6.66602V18.666Z" fill="#5A8088"/>
</g>
</svg>
