<svg width="32" height="32" viewBox="0 0 32 32" fill="none" xmlns="http://www.w3.org/2000/svg">
<g id="design_services">
<g id="Vector">
<path d="M21.6517 15.3452L23.745 13.2519L18.745 8.25186L16.6517 10.3452L11.1317 4.83852C10.0917 3.79852 8.39835 3.79852 7.35835 4.83852L4.82502 7.37186C3.78502 8.41186 3.78502 10.1052 4.82502 11.1452L10.3317 16.6519L4.19835 22.7985C4.06502 22.9319 3.99835 23.0919 3.99835 23.2785V27.3319C3.99835 27.7052 4.29169 27.9985 4.66502 27.9985H8.71835C8.89169 27.9985 9.06502 27.9319 9.18502 27.7985L15.345 21.6385L20.8517 27.1452C22.6117 28.9052 24.5317 27.2385 24.625 27.1452L27.1584 24.6119C28.1984 23.5719 28.1984 21.8785 27.1584 20.8385L21.6517 15.3452ZM12.2384 14.7585L6.71835 9.25186L9.23835 6.71852L10.9317 8.41185L10.305 9.06519C9.78502 9.58519 9.78502 10.4252 10.305 10.9452C10.825 11.4652 11.665 11.4652 12.185 10.9452L12.825 10.3052L14.7584 12.2385L12.2384 14.7585ZM22.745 25.2785L17.2384 19.7719L19.7717 17.2385L21.705 19.1719L21.065 19.8119C20.545 20.3319 20.545 21.1719 21.065 21.6919C21.585 22.2119 22.425 22.2119 22.945 21.6919L23.585 21.0519L25.2783 22.7452L22.745 25.2785Z" fill="#00A7A7"/>
<path d="M27.6117 9.38519C28.1317 8.86519 28.1317 8.02519 27.6117 7.50519L24.4917 4.38519C23.865 3.75852 22.9983 3.99852 22.6117 4.38519L20.1717 6.82519L25.1717 11.8252L27.6117 9.38519Z" fill="#00A7A7"/>
</g>
</g>
</svg>
