<svg width="32" height="32" viewBox="0 0 32 32" fill="none" xmlns="http://www.w3.org/2000/svg">
<g id="account_balance">
<path id="Vector" d="M5.99998 15.8285V21.1619C5.99998 22.2685 6.89331 23.1619 7.99998 23.1619C9.10665 23.1619 9.99998 22.2685 9.99998 21.1619V15.8285C9.99998 14.7219 9.10665 13.8285 7.99998 13.8285C6.89331 13.8285 5.99998 14.7219 5.99998 15.8285ZM14 15.8285V21.1619C14 22.2685 14.8933 23.1619 16 23.1619C17.1066 23.1619 18 22.2685 18 21.1619V15.8285C18 14.7219 17.1066 13.8285 16 13.8285C14.8933 13.8285 14 14.7219 14 15.8285ZM5.33331 29.8285H26.6666C27.7733 29.8285 28.6666 28.9352 28.6666 27.8285C28.6666 26.7219 27.7733 25.8285 26.6666 25.8285H5.33331C4.22665 25.8285 3.33331 26.7219 3.33331 27.8285C3.33331 28.9352 4.22665 29.8285 5.33331 29.8285ZM22 15.8285V21.1619C22 22.2685 22.8933 23.1619 24 23.1619C25.1066 23.1619 26 22.2685 26 21.1619V15.8285C26 14.7219 25.1066 13.8285 24 13.8285C22.8933 13.8285 22 14.7219 22 15.8285ZM14.76 2.48187L4.22665 8.02854C3.67998 8.30854 3.33331 8.88187 3.33331 9.49521C3.33331 10.4152 4.07998 11.1619 4.99998 11.1619H27.0133C27.92 11.1619 28.6666 10.4152 28.6666 9.49521C28.6666 8.88187 28.32 8.30854 27.7733 8.02854L17.24 2.48187C16.4666 2.06854 15.5333 2.06854 14.76 2.48187Z" fill="#F1BC19"/>
</g>
</svg>
