<svg width="32" height="32" viewBox="0 0 32 32" fill="none" xmlns="http://www.w3.org/2000/svg">
<g id="language">
<path id="Vector" d="M15.9867 2.66602C8.62667 2.66602 2.66667 8.63935 2.66667 15.9993C2.66667 23.3594 8.62667 29.3327 15.9867 29.3327C23.36 29.3327 29.3333 23.3594 29.3333 15.9993C29.3333 8.63935 23.36 2.66602 15.9867 2.66602ZM25.2267 10.666H21.2933C20.8667 8.99935 20.2533 7.39935 19.4533 5.91935C21.9067 6.75935 23.9467 8.46602 25.2267 10.666ZM16 5.38602C17.1067 6.98602 17.9733 8.75935 18.5467 10.666H13.4533C14.0267 8.75935 14.8933 6.98602 16 5.38602ZM5.68001 18.666C5.46667 17.8127 5.33334 16.9193 5.33334 15.9993C5.33334 15.0793 5.46667 14.186 5.68001 13.3327H10.1867C10.08 14.2127 10 15.0927 10 15.9993C10 16.906 10.08 17.786 10.1867 18.666H5.68001ZM6.77334 21.3327H10.7067C11.1333 22.9993 11.7467 24.5993 12.5467 26.0793C10.0933 25.2393 8.05334 23.546 6.77334 21.3327ZM10.7067 10.666H6.77334C8.05334 8.45268 10.0933 6.75935 12.5467 5.91935C11.7467 7.39935 11.1333 8.99935 10.7067 10.666ZM16 26.6127C14.8933 25.0127 14.0267 23.2393 13.4533 21.3327H18.5467C17.9733 23.2393 17.1067 25.0127 16 26.6127ZM19.12 18.666H12.88C12.76 17.786 12.6667 16.906 12.6667 15.9993C12.6667 15.0927 12.76 14.1993 12.88 13.3327H19.12C19.24 14.1993 19.3333 15.0927 19.3333 15.9993C19.3333 16.906 19.24 17.786 19.12 18.666ZM19.4533 26.0793C20.2533 24.5993 20.8667 22.9993 21.2933 21.3327H25.2267C23.9467 23.5327 21.9067 25.2393 19.4533 26.0793ZM21.8133 18.666C21.92 17.786 22 16.906 22 15.9993C22 15.0927 21.92 14.2127 21.8133 13.3327H26.32C26.5333 14.186 26.6667 15.0793 26.6667 15.9993C26.6667 16.9193 26.5333 17.8127 26.32 18.666H21.8133Z" fill="#EE3E54"/>
</g>
</svg>
