<svg width="32" height="32" viewBox="0 0 32 32" fill="none" xmlns="http://www.w3.org/2000/svg">
<g id="tag">
<path id="Vector" d="M26.6667 12.0007C26.6667 11.2673 26.0667 10.6673 25.3333 10.6673H21.3333V6.66732C21.3333 5.93398 20.7333 5.33398 20 5.33398C19.2667 5.33398 18.6667 5.93398 18.6667 6.66732V10.6673H13.3333V6.66732C13.3333 5.93398 12.7333 5.33398 12 5.33398C11.2667 5.33398 10.6667 5.93398 10.6667 6.66732V10.6673H6.66666C5.93333 10.6673 5.33333 11.2673 5.33333 12.0007C5.33333 12.734 5.93333 13.334 6.66666 13.334H10.6667V18.6673H6.66666C5.93333 18.6673 5.33333 19.2673 5.33333 20.0007C5.33333 20.734 5.93333 21.334 6.66666 21.334H10.6667V25.334C10.6667 26.0673 11.2667 26.6673 12 26.6673C12.7333 26.6673 13.3333 26.0673 13.3333 25.334V21.334H18.6667V25.334C18.6667 26.0673 19.2667 26.6673 20 26.6673C20.7333 26.6673 21.3333 26.0673 21.3333 25.334V21.334H25.3333C26.0667 21.334 26.6667 20.734 26.6667 20.0007C26.6667 19.2673 26.0667 18.6673 25.3333 18.6673H21.3333V13.334H25.3333C26.0667 13.334 26.6667 12.734 26.6667 12.0007ZM18.6667 18.6673H13.3333V13.334H18.6667V18.6673Z" fill="#F1BC19"/>
</g>
</svg>
